<svg fill="none" height="68" viewBox="0 0 76 68" width="76" xmlns="http://www.w3.org/2000/svg"><g fill="#81b3d2"><path d="M71.711 45.332H4.29C1.895 45.332 0 47.303 0 49.57v3.45c0 2.266 1.895 4.138 4.289 4.138h.997v.986c0 5.42 4.488 9.756 9.874 9.756h45.68c5.485 0 9.874-4.435 9.874-9.756v-.986h.997c2.294 0 4.289-1.872 4.289-4.237v-3.45c0-2.168-1.895-4.139-4.289-4.139zm-3.89 12.812c0 3.745-3.091 6.8-6.881 6.8H15.06c-3.79 0-6.882-3.055-6.882-6.8v-.986h59.644zm5.187-5.223c0 .69-.598 1.28-1.297 1.28H4.29c-.698 0-1.297-.59-1.297-1.28v-3.45c0-.59.599-1.182 1.297-1.182h67.52c.698 0 1.297.591 1.297 1.281v3.35zM16.157 37.35l5.386 3.942 5.486-3.942 5.486 3.942L38 37.35l5.386 3.942 5.485-3.942 5.486 3.942 5.486-3.942 5.485 3.942 6.284-4.632-1.696-2.365-4.588 3.252-5.485-3.942-5.486 3.942-5.486-3.942-5.485 3.942L38 33.605l-5.485 3.942-5.486-3.942-5.486 3.942-5.385-3.942-5.486 3.942-4.588-3.252-1.795 2.365 6.383 4.632zm54.557-6.701c0-.592.1-2.563 0-2.957C70.016 12.32 55.654 0 38 0 20.346 0 5.884 12.319 5.186 27.692v2.957zM38 2.956c15.958 0 29.123 11.038 29.722 24.736H8.178C8.877 13.994 22.042 2.956 38 2.956z"/><path d="M38 16.753a1.983 1.983 0 001.995-1.97c0-1.09-.893-1.972-1.995-1.972s-1.995.883-1.995 1.971c0 1.089.893 1.971 1.995 1.971zm-7.979-4.829a1.983 1.983 0 001.995-1.971c0-1.089-.893-1.97-1.995-1.97s-1.995.881-1.995 1.97.893 1.971 1.995 1.971zm15.958 0a1.983 1.983 0 001.995-1.971c0-1.089-.893-1.97-1.995-1.97s-1.995.881-1.995 1.97.893 1.971 1.995 1.971z"/></g></svg>