<svg fill="none" height="75" viewBox="0 0 64 75" width="64" xmlns="http://www.w3.org/2000/svg"><path d="m61.1556 22.1167h-.1016-24.6857c13.8158-6.7978 14.9333-11.0965 14.4254-13.49572-1.1175-3.89877-5.6889-6.89782-9.9556-5.29832-5.5873 2.09933-7.1111 10.29674-8.6349 16.19484-1.9302-5.9981-3.7588-13.59567-8.127-17.49443-1.2191-1.099656-3.0476-2.199309-5.7905-1.9993718-4.0635.3998738-9.85395 5.2983218-7.4159 10.7966018 2.235 5.2983 9.6508 8.6972 14.6286 11.3964h-22.65396c-1.62539 0-2.84444 1.2996-2.84444 2.7991v11.1965c0 1.5995 1.32063 2.7991 2.84444 2.7991h.30477v35.9886h57.90479v-35.9886h.1016c1.6254 0 2.8444-1.2996 2.8444-2.7991v-11.1965c0-1.5995-1.3206-2.8991-2.8444-2.8991zm-18.6921-16.29483c2.1333-.29991 4.9778 1.29959 5.2825 3.19898.4064 2.69915-3.3523 5.19835-5.0793 6.29805-2.5397 1.6994-4.9778 2.5991-7.3143 3.9987.8127-3.6988 2.5397-12.89592 7.1111-13.49573zm-22.9587 9.79693c-2.235-1.4996-6.5016-4.3986-6.4-7.6976.1015-3.59886 5.7904-6.49794 8.8381-3.7988 3.8603 3.29896 5.6888 10.9965 7.1111 16.3948-3.2508-1.5995-6.2984-2.7991-9.5492-4.8984zm5.9936 56.3821h-19.40316v-32.9895h19.40316zm0-35.9886h-22.45078v-10.8965h22.45078zm10.1587 35.9886h-7.2127v-46.8851h7.2127zm22.3493 0h-19.3016v-32.9895h19.4031v32.9895zm2.946-35.9886h-22.2476v-10.8965h22.2476z" fill="#81b3d2"/></svg>