<svg fill="none" height="68" viewBox="0 0 76 68" width="76" xmlns="http://www.w3.org/2000/svg"><g fill="#81b3d2"><path d="m71.7113 45.3324h-67.42259c-2.3937 0-4.28871 1.971-4.28871 4.2376v3.4492c0 2.2666 1.89501 4.139 4.28871 4.139h.99738v.9855c0 5.4202 4.48819 9.7563 9.87401 9.7563h45.6798c5.4856 0 9.874-4.4347 9.874-9.7563v-.9855h.9974c2.294 0 4.2887-1.8724 4.2887-4.2376v-3.4492c0-2.168-1.895-4.139-4.2887-4.139zm-3.8898 12.8113c0 3.7449-3.0918 6.7999-6.8819 6.7999h-45.8792c-3.7901 0-6.88192-3.055-6.88192-6.7999v-.9855h59.64302zm5.1864-5.2231c0 .6899-.5984 1.2812-1.2966 1.2812h-67.42259c-.69816 0-1.29658-.5913-1.29658-1.2812v-3.4492c0-.5913.59842-1.1825 1.29658-1.1825h67.52229c.6982 0 1.2966.5912 1.2966 1.2811v3.3506z"/><path d="m16.1575 37.3496 5.3859 3.9419 5.4855-3.9419 5.4856 3.9419 5.4855-3.9419 5.3859 3.9419 5.4855-3.9419 5.4856 3.9419 5.4856-3.9419 5.4855 3.9419 6.2835-4.6318-1.6955-2.3651-4.588 3.2521-5.4855-3.942-5.4856 3.942-5.4856-3.942-5.4855 3.942-5.3859-3.942-5.4855 3.942-5.4856-3.942-5.4855 3.942-5.3859-3.942-5.4855 3.942-4.58797-3.2521-1.79527 2.3651 6.38324 4.6318z"/><path d="m70.7138 30.6486c0-.5913.0998-2.5622 0-2.9564-.6981-15.3736-15.0603-27.6922-32.7139-27.6922-17.6535 0-32.11546 12.3186-32.81362 27.6922v2.9564zm-32.7139-27.69214c15.958 0 29.1234 11.03744 29.7218 24.73574h-59.54329c.69816-13.6983 13.86349-24.73574 29.82149-24.73574z"/><path d="m38 16.7532c1.1017 0 1.9948-.8824 1.9948-1.9709 0-1.0886-.8931-1.971-1.9948-1.971s-1.9948.8824-1.9948 1.971c0 1.0885.8931 1.9709 1.9948 1.9709z"/><path d="m30.021 11.924c1.1017 0 1.9947-.8824 1.9947-1.97097 0-1.08854-.893-1.97097-1.9947-1.97097s-1.9948.88243-1.9948 1.97097c0 1.08857.8931 1.97097 1.9948 1.97097z"/><path d="m45.979 11.924c1.1017 0 1.9948-.8824 1.9948-1.97097 0-1.08854-.8931-1.97097-1.9948-1.97097s-1.9947.88243-1.9947 1.97097c0 1.08857.893 1.97097 1.9947 1.97097z"/></g></svg>