<svg enable-background="new 0 0 186.643 96.425" height="96.425" viewBox="0 0 186.643 96.425" width="186.643" xmlns="http://www.w3.org/2000/svg"><path d="m186.643 0h-186.643l80.486 90.474c7.061 7.936 18.61 7.936 25.67 0z" fill="#81b3d3"/><path d="m43.242.721 49.523 58.35 49.324-57.997z" fill="#23a9e1"/><path d="m122.023 17.332c-5.062.028-10.124.056-15.187.084 6.001-6.931 8.697-6.19 15.187-.084z" fill="#fff"/><path d="m80.849 22.69h26.68c-1.985-1.233-6.708-7.059-9.308-4.893-.212.178-7.505-8.848-12.296-4.499-4.179 3.799-6.12-.498-10.857 2.511-5.399 3.57 3.12 5.675 5.781 6.881z" fill="#fff"/><path d="m93.104.016h-50.92v22.463l50.581 61.522.339-.424 50.748-60.394v-23.167zm0 57.052-.339.409-46.873-55.684h47.211 47.208z" fill="#491213"/><path d="m92.765 57.477.339-.409 27.576-32.288c-6.913.949-11.864 6.077-18.604 4.956-3.396-.564-3.498-2.514-4.469-4.456-.746-1.493-1.937-1.303-3.487-1.91-1.442-.565-2.277-1.738-5.162-1.061-2.528.593-2.807 4.518-5.952 4.293-1.689-.121-1.811-2.497-4.244-5.539-6.302-7.571-12.158-6.523-16.247.475z" fill="#491213"/><path d="m88.745 70.916 4.02-6.5 4.004 6.5-4.004 6.514z" fill="#23a9e1"/><g fill="#491213"><path d="m124.567 20.258c-.035-.039-3.714-3.86-9.46-7.639-5.281-3.474-13.444-7.624-22.346-7.667-8.921-.049-16.971 4.087-22.156 7.566-5.632 3.78-9.18 7.61-9.215 7.648l-.706-.649c.036-.04 3.661-3.954 9.387-7.796 5.298-3.554 13.54-7.774 22.696-7.729 9.144.044 17.493 4.287 22.888 7.837 5.832 3.839 9.57 7.727 9.606 7.766z"/><path d="m48.363 1.2h.783v6.627h-.783z"/><path d="m54.116.933h.783v12.634h-.783z"/><path d="m60.363 1.017h.784v18.43h-.784z"/><path d="m66.779.933h.783v13.495h-.783z"/><path d="m73.42.819h.784v9.18h-.784z"/><path d="m80.33 1.074h.782v5.683h-.782z"/><path d="m86.676.918h.783v4.104h-.783z"/><path d="m56.928 7.699h14.095v.784h-14.095z" transform="matrix(-.4571 -.8894 .8894 -.4571 86.0255 68.6893)"/><path d="m65.248 5.536h10.575v.783h-10.575z" transform="matrix(-.6306 -.7761 .7761 -.6306 110.4178 64.4075)"/><path d="m72.811 4.074h7.972v.783h-7.972z" transform="matrix(-.7484 -.6633 .6633 -.7484 131.3064 58.7461)"/><path d="m80.394 2.974h7.032v.783h-7.032z" transform="matrix(-.8984 -.4393 .4393 -.8984 157.8131 43.247)"/><path d="m86.769 2.738h6.246v.783h-6.246z" transform="matrix(-.9076 -.4199 .4199 -.9076 170.1622 43.7135)"/><path d="m136.324 1.257h.783v5.781h-.783z"/><path d="m130.571.721h.784v12.973h-.784z"/><path d="m124.325 1.257h.782v18.458h-.782z"/><path d="m117.909 1.031h.782v13.241h-.782z"/><path d="m111.268.989h.783v9.011h-.783z"/><path d="m104.358.679h.783v6.078h-.783z"/><path d="m97.883 1.172h1.015v3.85h-1.015z"/><path d="m121.129 1.052h.782v13.956h-.782z" transform="matrix(-.8889 -.4582 .4582 -.8889 225.8566 70.8436)"/><path d="m114.566.643h.783v10.461h-.783z" transform="matrix(-.7732 -.6342 .6342 -.7732 200.1183 83.3156)"/><path d="m108.268.475h.783v7.97h-.783z" transform="matrix(-.6634 -.7482 .7482 -.6634 177.4106 88.722)"/><path d="m101.169-.154h.784v7.032h-.784z" transform="matrix(-.4385 -.8987 .8987 -.4385 143.0711 96.1146)"/><path d="m95.196.013h.783v6.246h-.783z" transform="matrix(-.4191 -.908 .908 -.4191 132.7973 91.2395)"/></g><path d="m65.464 32.265c.513.618.891 1.284.806 2.116-.059.579-.936 1.55-.27 1.846.747-.945 1.495-1.889 2.242-2.834-.602-.151-5.365-5.848-5.442-6.472-1.053.578-2.106 1.156-3.159 1.734.164.661 1.294.005 1.854.046.828.06 1.425.56 1.953 1.152-1.728 1.449-5.931 5.017-6.374 5.09-.226.036-1.088-.601-1.101-.056-.006.262.852 1.014 1.015 1.21.743.884 1.485 1.769 2.229 2.653.619-.282-.11-.732.205-1.243.232-.374 4.901-4.267 6.042-5.242z" fill="#fff"/><path d="m60.191 25.285c.443-.095.624.434.958-.056-.816-.973-1.633-1.945-2.449-2.917-.371-.442-.84-.916-.706.018.089.63-6.113 5.664-6.493 5.82-.479.197-.758-.417-1.109.097.731.869 1.461 1.739 2.193 2.608.246.292.477.612.747.882.339.339.208-.672.224-.585-.091-.513.527-.948.855-1.228 1.545-1.361 5.398-4.588 5.78-4.639z" fill="#fff"/><path d="m51.42 24.368c-1.767.523-3.65-.164-4.207-2.042-.543-1.835.614-3.757 2.071-4.801 1.439-1.032 3.589-.97 4.373.838.346.799.158 1.706-.094 2.502-.16.506-.597 1 .056 1.289.86-1.096 1.721-2.19 2.581-3.286-1.055-.633-1.518-1.683-2.3-2.595-.882-1.071-2.064-2.079-3.482-2.284-2.87-.406-5.574 2.556-5.795 5.245-.136 1.457.374 2.848 1.246 4.001.75.994 1.868 1.623 2.435 2.754.262.095 2.705-1.033 3.286-1.255-.052-.111-.089-.275-.17-.366-.761.226 0 0 0 0z" fill="#fff"/><path d="m90.72 60.777c-1.15-.768-4.025-4.689-4.573-5.341-.108-.13-.219-.261-.329-.392-.011-.014-.284.225-.246.191-.173.145.134.573-.052.864-.793 1.241-5.758 4.983-6.016 5.163-.556.384-1.164-.159-1.489.316.719.854 2.78 3.543 3.019 3.582.479.078.148-.815.211-1 .123-.369 2.633-2.445 3.549-3.211.336-.281.688.426.888.723.327.484.474 1 .298 1.568-.116.37-.717.92-.25 1.174.619-.723 2.361-2.754 2.613-3.049.252-.293-.566-.037-.469-.087-.37.191-.718.235-1.063-.028-.096-.071-1.089-1.082-.99-1.166.431-.361.959-.963 1.517-1.1.862-.213 1.582 1.516 1.709 2.129.121.578.104 1.186-.076 1.75-.124.387-.487.696.018.93.712-.974 1.422-1.946 2.131-2.92-.146.007-.278-.025-.4-.096-.127-.085.139.07 0 0z" fill="#fff"/><path d="m80.496 56.646c2.205-1.855 2.482-5.053.769-7.339-1.867-2.489-5.371-3.096-7.804-1.052-2.204 1.854-2.489 5.047-.758 7.325 1.991 2.621 5.199 2.918 7.793 1.066 1.156-.975-.099.07 0 0zm-.465-4.753c-.647 1.51-2.201 3.063-3.732 3.667-1.818.715-3.1-.827-2.36-2.553.65-1.516 2.203-3.057 3.737-3.666 1.852-.735 3.066.846 2.355 2.552-.381.89.071-.169 0 0z" fill="#fff"/><path d="m74.052 42.037c.475.06.926.55 1.269.042-.742-.879-1.484-1.758-2.228-2.637-.595.269.047.549-.194.971-.244.427-2.56.781-3.176.89.224-.644.895-2.615 1.157-2.835.544-.445.883.432 1.283-.141-.915-1.084-1.829-2.169-2.743-3.253-.31-.366-.559-1.028-.98-.68.038-.031.006 1.472-.089 1.733-.086.236-.936 3.638-1.926 4.47-.493.414-2.237 1.934-2.702 2.097-.541.189-.825-.598-1.22-.038.83.986 1.661 1.971 2.491 2.957.125.148.602.863.767.893.521.094.06-.893.113-1.086.151-.431 2.5-2.719 3.497-2.859 1.461-.205 3.2-.702 4.681-.524.339.042-.352-.043 0 0z" fill="#fff"/><path d="m67.792 22.874c-4.043-.167-2.351-3.954.395-4.808 2.611-.813 8.089 1.717 9.843 3.398-2.783.855-6.386.732-9.447.874-.226-3.12-.958-2.032-.791.536z" fill="#dc6243"/><path d="m68.807 27.724c-2.04-1.579-1.396-5.266 1.763-4.146 4.005 2.084-.856 3.239-1.763 4.146 0 0 .042-.042 0 0z" fill="#dc6243"/><path d="m77.295 35.423c-8.62-.071-2.792-13.322.141-12.521 3.373 1.073 2.995 12.622-.141 12.521z" fill="#dc6243"/><path d="m83.401 31.094c-.84 2.501-2.361 2.968-2.192-.07.194-3.503 2.479-2.662 4.93-4.004 2.04-1.119 3.139-5.214 6.641-2.765 1.562 1.093 3.352.179 3.851 1.833-.025-.084-4.545 10.308-2.031 10.308-4.961 0-2.773-5.922-.874-9.899-1.847.885-4.842 6.688-2.382 7.643-1.281 1.686-5.194 3.945-7.234 2.298-1.552-1.249-.692-3.325-.709-5.344z" fill="#dc6243"/><path d="m87.505 40.697c-3.489 1.046-8.122-1.207-2.51-2.34 3.483-.704 7.187.778 2.51 2.34.141-.042-.128.043 0 0z" fill="#dc6243"/><path d="m91.875 40.556c-.736-1.658.562-3.635 2.68-2.199 1.847 1.252-.851 3.106-2.68 2.199z" fill="#dc6243"/><path d="m88.929 45.224c-2.411-.747-10.537-.561-5.218-2.764 1.64-.679 10.154.098 5.218 2.764z" fill="#dc6243"/><path d="m92.144 44.871c-.007-.96-.512-2.679 1.354-1.946 2.235.879-1.354 2.651-1.354 1.946z" fill="#dc6243"/><path d="m99.363 48.538c-1.437-1.227-2.891-1.295-4.229 0-1.795-3.293-8.318-2.19-11.366-2.651 1.638 4.029 14.864 4.78 15.595 2.651z" fill="#dc6243"/><path d="m97.46 50.962c-3.151-.146-6.671-.563-9.646.084 1.86.466 6.396 1.795 2.172 2.918 1.515 2.168 3.973 2.029 5.584.127-.655-.322-1.01-.719-1.552-1.057 1.672-.303 3.234-1.267 3.442-2.072z" fill="#dc6243"/><path d="m101.056 47.085c-5.288-3.112-3.95-5.427.354-7.586 2.254-1.131 7.324-5.208 9.447-3.85-3.268 3.812-6.535 7.624-9.801 11.436z" fill="#dc6243"/><path d="m97.291 39.809c-4.479-4.601 6.689-4.178 8.487-5.796 1.311.437 10.768-8.283 13.071-7.741-1.655 1.941-5.22 8.136-7.775 8.136-1.964 0-3.95-.292-5.472 1.107-2.224 2.048-5.908 3.09-8.311 4.294z" fill="#f49774"/><path d="m98.758 34.183c-2.453 1.319-4.772-3.907-.537-3.398 2.813.338 5.662-.237 8.348.226-1.927 2.291-4.706 3.553-7.811 3.172z" fill="#f4b1a4"/><path d="m92.167 1.426h.938v3.313h-.938z" fill="#491213"/><path d="m111.39 52.466c.191.648.299 1.332.215 2.009-.107.873-.979 2.925-2.173 2.34-1.169-.573-2.194-1.728-3.188-2.552.802-.936 1.507-1.749 2.854-1.295.37.123.688-.036.299-.262-.405-.234-3.114-1.965-3.261-1.799-.271.311.528.868.221 1.473-.229.447-.61.834-.932 1.219-.72-.607-1.923-1.253-1.057-2.256.542-.66 1.25-1.172 2.098-1.342.565-.114 1.841.389 2.006-.224-1.087-.522-2.172-1.044-3.258-1.565.177.799-3.349 4.525-4.131 5.464-.113.137-.658.609-.664.797-.009.429.622.097.657.084.486-.18 6.816 5.109 6.973 5.471.1.281-.221.574-.029.732-.011-.01.228.216.253.184.391-.468 4.522-5.975 5.374-6.217-.794-1.215-1.588-2.43-2.368-3.652-.59.258-.019.949.111 1.391z" fill="#fff"/><path d="m105.229 59.169c-2.077-1.34-5.596 1.279-6.125 1.531-1.039.492-1.789-.543-1.251-1.502.469-.83 1.393-1.234 2.31-1.289.277-.017 1.35.198 1.459.026.13-.202.228-.22.042-.345-.856-.579-1.712-1.156-2.567-1.734-.176 1.055-1.385 1.727-2.076 2.441-.823.854-1.52 1.93-1.52 3.156 0 1.135.679 2.142 1.677 2.66 1.136.592 2.317.116 3.324-.511.627-.392 1.254-.856 1.924-1.171.996-.467 2.304-.062 1.953 1.27-.282 1.073-1.351 2.061-2.405 2.34-.616.164-1.27.109-1.872-.09-.432-.142-.993-.734-1.23-.111 1.161.846 2.321 1.691 3.482 2.537.103-.76.522-1.09 1.086-1.564.735-.645 1.438-1.32 1.994-2.13 1.159-1.693 1.538-4.062-.205-5.514z" fill="#fff"/><path d="m105.229 59.169c.925.598-.591-.494 0 0z" fill="#fff"/><path d="m134.462 21.855c-.007.004-.007.004 0 0z" fill="#fff"/><path d="m141.92 19.645c-.729.729-8.42-2.341-8.982-2.764-.29-.116-.3-1.321-.705-.833-.404.488-.81.976-1.216 1.463-.418.505-.837 1.009-1.256 1.513-.26.314-.537.458-.038.72.837-.419 5.417 7.346 5.008 8.461-.725.376-6.915-5.057-7.081-5.415-.052-.146.273-1.021-.211-.945-.229.036-.743.896-.889 1.072-.297.357-.592.715-.889 1.072.332.485.517-.021.959.042.383.077 1.844 1.331 2.241 1.664-.725.027-2.685.131-2.934.113-.903.112-.422-.663-1.015-.931-.759.922-1.52 1.843-2.277 2.764-.441.536-.885 1.072-1.326 1.607-.054.065-.047.032.05.112.33.273.104.168.568.006.506-.177 6.559 4.931 6.776 5.19.377.45-.154.975.411 1.221.6-.728 1.198-1.457 1.798-2.184.091-.11.141-.1.021-.198-.427-.353-.476.212-1.002.154-.533-.089-4.395-3.369-5.895-4.61 1.822-.068 7.291-.271 8.199-.304.3-.011 1.139.896 1.068 1.216-.081.378-.463.558.054.794.479-.575.985-1.149 1.456-1.734l.227-.282c.076-.052.146-.145.21-.265l.168-.211c.425-.485 1.8-2.006 1.635-2.15-.461-.4-.685.466-1.298-.054-.348-.249-1.223-1.788-1.443-2.162-.264-.449.608-.897.964-1.119.776-.482 3.247-1.183 3.482.348.04.258-.271.55-.084.704.044.037.204.242.27.163.163-.197 2.361-2.843 3.3-3.969-.098-.082-.207-.224-.324-.269zm-7.374 2.156c.077-.049.153-.098 0 0-.051.032-.074.047-.084.054.014-.008.047-.03.082-.052-.345.22-.668.473-.958.761-.521-.897-1.044-1.795-1.564-2.693 1.177.491 2.352.985 3.524 1.481-.354.098-.691.253-1 .449z" fill="#fff"/><path d="m124.801 33.012c-2.375-1.979-5.63-1.404-7.586.832-1.903 2.312-1.712 5.663.605 7.615 2.339 1.926 5.67 1.438 7.572-.846 1.898-2.303 1.768-5.668-.591-7.601zm-.281 6.614c-.019.02-.025.027-.026.027-1.232 1.292-3.358.096-4.505-.731-1.146-.829-3.111-2.57-1.856-4.104 1.056-1.287 3.124-.231 4.191.482 1.2.803 3.412 2.596 2.276 4.216.074-.09.126-.148-.08.11z" fill="#fff"/><path d="m124.801 33.012c1.171.959-.253-.211 0 0z" fill="#fff"/><path d="m124.492 39.653c.009-.01.018-.018.026-.027.029-.037.056-.073.08-.11-.049.061-.11.137-.106.137z" fill="#fff"/><path d="m118.209 42.136c.112.094.273.224-.063-.057-2.835-2.127-6.194-1.504-8.402 1.157-.988 1.189-1.976 2.378-2.961 3.567.351.512.763-.118 1.273.176.436.25 6.244 5.101 6.339 5.366.164.458-.255.548.144.875.172.143 4.536-5.245 4.935-6.191.69-1.755.14-3.678-1.265-4.893zm-1.318 6.754c-.24.296-.044.054-.665.65-.306.293-6.438-4.675-6.192-4.944.835-.918 2.567-1.556 3.577-1.297 2.19.56 5.213 3.26 3.28 5.591z" fill="#fff"/></svg>