<?xml version="1.0" encoding="UTF-8"?><!DOCTYPE svg PUBLIC "-//W3C//DTD SVG 1.1//EN" "http://www.w3.org/Graphics/SVG/1.1/DTD/svg11.dtd"><svg xmlns="http://www.w3.org/2000/svg" xmlns:xlink="http://www.w3.org/1999/xlink"><symbol id="icon-s-burger" viewBox="0 0 76 68"><g fill="#81b3d2"><path d="m71.7113 45.3324h-67.42259c-2.3937 0-4.28871 1.971-4.28871 4.2376v3.4492c0 2.2666 1.89501 4.139 4.28871 4.139h.99738v.9855c0 5.4202 4.48819 9.7563 9.87401 9.7563h45.6798c5.4856 0 9.874-4.4347 9.874-9.7563v-.9855h.9974c2.294 0 4.2887-1.8724 4.2887-4.2376v-3.4492c0-2.168-1.895-4.139-4.2887-4.139zm-3.8898 12.8113c0 3.7449-3.0918 6.7999-6.8819 6.7999h-45.8792c-3.7901 0-6.88192-3.055-6.88192-6.7999v-.9855h59.64302zm5.1864-5.2231c0 .6899-.5984 1.2812-1.2966 1.2812h-67.42259c-.69816 0-1.29658-.5913-1.29658-1.2812v-3.4492c0-.5913.59842-1.1825 1.29658-1.1825h67.52229c.6982 0 1.2966.5912 1.2966 1.2811v3.3506z"/><path d="m16.1575 37.3496 5.3859 3.9419 5.4855-3.9419 5.4856 3.9419 5.4855-3.9419 5.3859 3.9419 5.4855-3.9419 5.4856 3.9419 5.4856-3.9419 5.4855 3.9419 6.2835-4.6318-1.6955-2.3651-4.588 3.2521-5.4855-3.942-5.4856 3.942-5.4856-3.942-5.4855 3.942-5.3859-3.942-5.4855 3.942-5.4856-3.942-5.4855 3.942-5.3859-3.942-5.4855 3.942-4.58797-3.2521-1.79527 2.3651 6.38324 4.6318z"/><path d="m70.7138 30.6486c0-.5913.0998-2.5622 0-2.9564-.6981-15.3736-15.0603-27.6922-32.7139-27.6922-17.6535 0-32.11546 12.3186-32.81362 27.6922v2.9564zm-32.7139-27.69214c15.958 0 29.1234 11.03744 29.7218 24.73574h-59.54329c.69816-13.6983 13.86349-24.73574 29.82149-24.73574z"/><path d="m38 16.7532c1.1017 0 1.9948-.8824 1.9948-1.9709 0-1.0886-.8931-1.971-1.9948-1.971s-1.9948.8824-1.9948 1.971c0 1.0885.8931 1.9709 1.9948 1.9709z"/><path d="m30.021 11.924c1.1017 0 1.9947-.8824 1.9947-1.97097 0-1.08854-.893-1.97097-1.9947-1.97097s-1.9948.88243-1.9948 1.97097c0 1.08857.8931 1.97097 1.9948 1.97097z"/><path d="m45.979 11.924c1.1017 0 1.9948-.8824 1.9948-1.97097 0-1.08854-.8931-1.97097-1.9948-1.97097s-1.9947.88243-1.9947 1.97097c0 1.08857.893 1.97097 1.9947 1.97097z"/></g></symbol><symbol id="icon-s-gift" viewBox="0 0 64 75"><path d="m61.1556 22.1167h-.1016-24.6857c13.8158-6.7978 14.9333-11.0965 14.4254-13.49572-1.1175-3.89877-5.6889-6.89782-9.9556-5.29832-5.5873 2.09933-7.1111 10.29674-8.6349 16.19484-1.9302-5.9981-3.7588-13.59567-8.127-17.49443-1.2191-1.099656-3.0476-2.199309-5.7905-1.9993718-4.0635.3998738-9.85395 5.2983218-7.4159 10.7966018 2.235 5.2983 9.6508 8.6972 14.6286 11.3964h-22.65396c-1.62539 0-2.84444 1.2996-2.84444 2.7991v11.1965c0 1.5995 1.32063 2.7991 2.84444 2.7991h.30477v35.9886h57.90479v-35.9886h.1016c1.6254 0 2.8444-1.2996 2.8444-2.7991v-11.1965c0-1.5995-1.3206-2.8991-2.8444-2.8991zm-18.6921-16.29483c2.1333-.29991 4.9778 1.29959 5.2825 3.19898.4064 2.69915-3.3523 5.19835-5.0793 6.29805-2.5397 1.6994-4.9778 2.5991-7.3143 3.9987.8127-3.6988 2.5397-12.89592 7.1111-13.49573zm-22.9587 9.79693c-2.235-1.4996-6.5016-4.3986-6.4-7.6976.1015-3.59886 5.7904-6.49794 8.8381-3.7988 3.8603 3.29896 5.6888 10.9965 7.1111 16.3948-3.2508-1.5995-6.2984-2.7991-9.5492-4.8984zm5.9936 56.3821h-19.40316v-32.9895h19.40316zm0-35.9886h-22.45078v-10.8965h22.45078zm10.1587 35.9886h-7.2127v-46.8851h7.2127zm22.3493 0h-19.3016v-32.9895h19.4031v32.9895zm2.946-35.9886h-22.2476v-10.8965h22.2476z" fill="#81b3d2"/></symbol><symbol id="icon-s-house" viewBox="0 0 75 72"><path d="M29.6185 64.9389H45.6827V41.1709H29.6185V64.9389ZM42.7711 62.0549H32.5301V44.0549H42.6707V62.0549H42.7711Z" fill="#81B3D2"/><path d="M72.8916 39.1823L75 37.0939L65.0602 27.2486V0.39779H51.2048V13.5249L37.4498 0L0 37.1934L2.10843 39.2818L9.93976 31.5249V69.116H6.0241V72H70.1807V69.116H65.0602V31.4254L72.8916 39.1823ZM54.1165 3.38122H62.0482V24.3646L54.1165 16.5083V3.38122ZM62.1486 69.0166H12.9518V28.5414L37.4498 4.1768L62.0482 28.5414V69.0166H62.1486Z" fill="#81B3D2"/><path d="M29.9197 27.0491C29.9197 31.3253 33.4338 34.806 37.6507 34.806C41.9679 34.806 45.482 31.3253 45.482 27.0491C45.482 22.7728 41.9679 19.3916 37.6507 19.3916C33.3334 19.3916 29.9197 22.7728 29.9197 27.0491ZM37.6507 22.0767C40.3615 22.0767 42.6707 24.2645 42.6707 27.0491C42.6707 29.7341 40.4619 32.0214 37.6507 32.0214C34.9398 32.0214 32.6306 29.8336 32.6306 27.0491C32.6306 24.364 34.9398 22.0767 37.6507 22.0767Z" fill="#81B3D2"/><path d="M19.9799 41.1709H16.9679V45.0493H19.9799V41.1709Z" fill="#81B3D2"/><path d="M25.9036 41.1709H22.8915V45.0493H25.9036V41.1709Z" fill="#81B3D2"/><path d="M19.9799 47.1387H16.9679V51.0171H19.9799V47.1387Z" fill="#81B3D2"/><path d="M25.9036 47.1387H22.8915V51.0171H25.9036V47.1387Z" fill="#81B3D2"/><path d="M52.008 41.1709H48.996V45.0493H52.008V41.1709Z" fill="#81B3D2"/><path d="M58.0321 41.1709H55.0201V45.0493H58.0321V41.1709Z" fill="#81B3D2"/><path d="M52.008 47.1387H48.996V51.0171H52.008V47.1387Z" fill="#81B3D2"/><path d="M58.0321 47.1387H55.0201V51.0171H58.0321V47.1387Z" fill="#81B3D2"/></symbol></svg>